# xmcd CD database file
#
# Track frame offsets:
#	150
#	34533
#	77208
#	111967
#	147416
#	181804
#	213163
#	247127
#	277481
#	303275
#
# Disc length: 4667 seconds
#
# Revision: 0
# Processed by: cddbd v1.5.1PL2 Copyright (c) Steve Scherf et al.
# Submitted via: CDex 1.51
#
DISCID=9212390a
DTITLE=Carl Saunders - Can You Dig Being Dug
DYEAR=2003
DGENRE=Jazz
TTITLE0=There Will Never Be Another You
TTITLE1=Happy Go Lucky
TTITLE2=Can You Dig Being Dug?
TTITLE3=Yesterdays
TTITLE4=Calming Notion
TTITLE5=MIDI Evil Blues
TTITLE6=One Note Samba
TTITLE7=What Can I Say?
TTITLE8=The Girl from Cancun
TTITLE9=Blues on the Side
EXTD=YEAR: 2003
EXTT0=
EXTT1=
EXTT2=
EXTT3=
EXTT4=
EXTT5=
EXTT6=
EXTT7=
EXTT8=
EXTT9=
PLAYORDER=
